HIERARCHY
ROOT joint_Root
{
	OFFSET 0.0 0.0 0.0
	CHANNELS 6 Xposition Yposition Zposition Zrotation Xrotation Yrotation 
	JOINT Hips
	{
		OFFSET -0.726466 93.3139 -2.00062
		CHANNELS 6 Xposition Yposition Zposition Zrotation Xrotation Yrotation 
		JOINT Spine
		{
			OFFSET 15.7357 0.0 0.0
			CHANNELS 6 Xposition Yposition Zposition Zrotation Xrotation Yrotation 
			JOINT Chest
			{
				OFFSET 8.98455 -0.406207 0.0
				CHANNELS 6 Xposition Yposition Zposition Zrotation Xrotation Yrotation 
				JOINT Neck
				{
					OFFSET 16.3773 0.0 0.0
					CHANNELS 6 Xposition Yposition Zposition Zrotation Xrotation Yrotation 
					JOINT Head
					{
						OFFSET 6.45672 0.0 0.0
						CHANNELS 6 Xposition Yposition Zposition Zrotation Xrotation Yrotation 
						End Site
						{
							OFFSET 0.0 0.0 0.0
						}
					}
				}
				JOINT Shoulder_L
				{
					OFFSET 12.9942 -0.242716 4.98039
					CHANNELS 6 Xposition Yposition Zposition Zrotation Xrotation Yrotation 
					JOINT UpperArm_L
					{
						OFFSET 5.34809 0.0 0.0
						CHANNELS 6 Xposition Yposition Zposition Zrotation Xrotation Yrotation 
						JOINT LowerArm_L
						{
							OFFSET 24.3286 1.87007e-05 0.0
							CHANNELS 6 Xposition Yposition Zposition Zrotation Xrotation Yrotation 
							JOINT Hand_L
							{
								OFFSET 22.2916 0.0 0.0
								CHANNELS 6 Xposition Yposition Zposition Zrotation Xrotation Yrotation 
								End Site
								{
									OFFSET 0.0 0.0 0.0
								}
							}
						}
					}
				}
				JOINT Shoulder_R
				{
					OFFSET 12.9945 -0.242716 -4.98039
					CHANNELS 6 Xposition Yposition Zposition Zrotation Xrotation Yrotation 
					JOINT UpperArm_R
					{
						OFFSET -5.34813 0.0 0.0
						CHANNELS 6 Xposition Yposition Zposition Zrotation Xrotation Yrotation 
						JOINT LowerArm_R
						{
							OFFSET -24.3289 0.000322201 0.0
							CHANNELS 6 Xposition Yposition Zposition Zrotation Xrotation Yrotation 
							JOINT Hand_R
							{
								OFFSET -22.2915 -0.000108084 0.0
								CHANNELS 6 Xposition Yposition Zposition Zrotation Xrotation Yrotation 
								End Site
								{
									OFFSET 0.0 0.0 0.0
								}
							}
						}
					}
				}
			}
		}
		JOINT UpperLeg_L
		{
			OFFSET -2.19248 -6.46944 0.0
			CHANNELS 6 Xposition Yposition Zposition Zrotation Xrotation Yrotation 
			JOINT LowerLeg_L
			{
				OFFSET 39.0811 0.0 -1.23785e-05
				CHANNELS 6 Xposition Yposition Zposition Zrotation Xrotation Yrotation 
				JOINT Foot_L
				{
					OFFSET 40.9854 0.0 -1.26872e-05
					CHANNELS 6 Xposition Yposition Zposition Zrotation Xrotation Yrotation 
					JOINT Toes_L
					{
						OFFSET 11.7543 0.0 0.0
						CHANNELS 6 Xposition Yposition Zposition Zrotation Xrotation Yrotation 
						End Site
						{
							OFFSET 0.0 0.0 0.0
						}
					}
				}
			}
		}
		JOINT UpperLeg_R
		{
			OFFSET -2.19251 6.46944 0.0
			CHANNELS 6 Xposition Yposition Zposition Zrotation Xrotation Yrotation 
			JOINT LowerLeg_R
			{
				OFFSET -39.0811 -0.00228153 -0.0401928
				CHANNELS 6 Xposition Yposition Zposition Zrotation Xrotation Yrotation 
				JOINT Foot_R
				{
					OFFSET -40.9854 0.0 0.0
					CHANNELS 6 Xposition Yposition Zposition Zrotation Xrotation Yrotation 
					JOINT Toes_R
					{
						OFFSET -11.7543 0.0 0.0
						CHANNELS 6 Xposition Yposition Zposition Zrotation Xrotation Yrotation 
						End Site
						{
							OFFSET 0.0 0.0 0.0
						}
					}
				}
			}
		}
	}
}
MOTION
Frames:	9
Frame Time:	0.0333333
0.000000 0.000000 0.000000 0.000000 0.000000 -0.000000 -2.557550 92.106300 -2.470040 88.123700 -1.051930 2.772670 15.735700 0.000005 -0.000001 68.619700 85.493100 -65.036700 8.984550 -0.406207 -0.000000 0.749282 -3.504050 7.185520 16.377300 -0.000001 -0.000001 2.820970 0.116072 -3.379320 6.456720 -0.000001 -0.000000 -1.925900 -0.771303 17.862000 12.994200 -0.242716 4.980390 -83.563400 -11.410500 -60.306400 5.348090 -0.000007 -0.000001 -66.887600 -52.935000 -127.985000 24.328600 0.000019 0.000005 0.794543 0.615802 -52.223100 22.291600 -0.000001 0.000005 17.931500 5.550090 -8.710510 12.994500 -0.242716 -4.980390 89.482100 1.374820 -69.358100 -5.348130 -0.000001 -0.000004 -48.562800 71.526100 2.868550 -24.328900 0.000322 -0.000009 19.692400 0.364376 -88.982900 -22.291500 -0.000108 -0.000004 26.929100 5.676580 -23.636800 -2.192480 -6.469440 -0.000000 -168.063000 -15.474600 -2.953280 39.081100 -0.000007 -0.000012 -0.143853 0.413090 19.200200 40.985400 -0.000006 -0.000013 -7.900800 1.301380 -61.167600 11.754300 -0.000000 0.000003 -0.000086 -0.000905 -16.612400 -2.192510 6.469440 -0.000001 175.160000 19.686000 177.485000 -39.081100 -0.002282 -0.040193 -0.085476 0.242639 20.100900 -40.985400 0.000008 0.000006 -3.971970 2.750130 -63.092400 -11.754300 -0.000006 -0.000006 -0.004509 -0.056632 -18.877000
0.000000 0.000000 0.000000 0.000000 0.000000 -0.000000 -2.567940 92.117300 -2.525780 88.056300 -1.332700 2.662770 15.735700 0.000005 -0.000001 68.597300 85.497300 -64.964300 8.984550 -0.406207 -0.000000 0.741937 -3.507490 7.285140 16.377300 -0.000001 -0.000001 2.775010 0.134593 -3.346770 6.456720 -0.000001 -0.000000 -1.979700 -0.725453 17.826100 12.994200 -0.242716 4.980390 -83.604100 -11.332200 -60.296500 5.348090 -0.000007 -0.000001 -66.764600 -53.631900 -126.594000 24.328600 0.000019 0.000005 0.588941 0.469271 -51.450100 22.291600 -0.000001 0.000005 18.017500 5.550230 -8.716650 12.994500 -0.242716 -4.980390 89.481200 1.372460 -69.290900 -5.348130 -0.000001 -0.000004 -48.773400 71.444300 3.060480 -24.328900 0.000322 -0.000009 19.823400 0.365762 -88.986300 -22.291500 -0.000108 -0.000004 27.004600 5.676560 -23.640200 -2.192480 -6.469440 -0.000000 -167.993000 -15.665800 -3.001030 39.081100 -0.000007 -0.000012 -0.143822 0.414158 19.150500 40.985400 -0.000006 -0.000013 -7.927570 1.227700 -61.134700 11.754300 -0.000000 0.000003 -0.000095 -0.000987 -16.615500 -2.192510 6.469440 -0.000001 175.311000 19.587700 177.310000 -39.081100 -0.002282 -0.040193 -0.085005 0.242272 20.030700 -40.985400 0.000008 0.000006 -3.911270 2.875330 -62.983100 -11.754300 -0.000006 -0.000006 -0.004511 -0.056656 -18.878000
0.000000 0.000000 0.000000 0.000000 0.000000 -0.000000 -2.583880 92.124800 -2.566860 88.075000 -1.542470 2.643670 15.735700 0.000005 -0.000001 68.810300 85.491100 -65.157400 8.984550 -0.406207 -0.000000 0.765548 -3.481240 7.325410 16.377300 -0.000001 -0.000001 2.837180 0.059094 -3.216940 6.456720 -0.000001 -0.000000 -2.017500 -0.778749 17.920900 12.994200 -0.242716 4.980390 -83.667300 -11.246400 -60.358500 5.348090 -0.000007 -0.000001 -66.386300 -54.566700 -124.194000 24.328600 0.000019 0.000005 0.636032 0.526777 -50.368300 22.291600 -0.000001 0.000005 18.142100 5.549050 -8.661420 12.994500 -0.242716 -4.980390 89.460700 1.419000 -69.186700 -5.348130 -0.000001 -0.000004 -48.985800 71.345900 3.325340 -24.328900 0.000322 -0.000009 19.803300 0.354780 -89.015700 -22.291500 -0.000108 -0.000004 27.051300 5.676050 -23.757300 -2.192480 -6.469440 -0.000000 -168.010000 -15.802700 -2.960370 39.081100 -0.000007 -0.000012 -0.141410 0.408784 19.082100 40.985400 -0.000006 -0.000013 -7.939170 1.131870 -61.095100 11.754300 -0.000000 0.000003 -0.000101 -0.001038 -16.617400 -2.192510 6.469440 -0.000001 175.338000 19.425900 177.222000 -39.081100 -0.002282 -0.040193 -0.082820 0.236210 20.036000 -40.985400 0.000008 0.000006 -3.877840 2.923040 -62.944400 -11.754300 -0.000006 -0.000006 -0.004569 -0.057230 -18.901400
0.000000 0.000000 0.000000 0.000000 0.000000 -0.000000 -2.613000 92.117800 -2.582070 88.021600 -1.655300 2.601070 15.735700 0.000005 -0.000001 68.988700 85.495400 -65.281100 8.984550 -0.406207 -0.000000 0.768822 -3.455230 7.434710 16.377300 -0.000001 -0.000001 2.851060 -0.072517 -3.046300 6.456720 -0.000001 -0.000000 -1.850780 -0.861883 18.044300 12.994200 -0.242716 4.980390 -83.740000 -11.174300 -60.488500 5.348090 -0.000007 -0.000001 -65.394300 -55.776800 -120.506000 24.328600 0.000019 0.000005 0.431658 0.373570 -49.129300 22.291600 -0.000001 0.000005 18.332000 5.547010 -8.565580 12.994500 -0.242716 -4.980390 89.472500 1.382550 -69.112600 -5.348130 -0.000001 -0.000004 -49.102000 71.237300 3.393730 -24.328900 0.000322 -0.000009 19.923700 0.340300 -89.062100 -22.291500 -0.000108 -0.000004 27.096500 5.677010 -23.533000 -2.192480 -6.469440 -0.000000 -167.933000 -15.866200 -3.011550 39.081100 -0.000007 -0.000012 -0.143655 0.413799 19.145200 40.985400 -0.000006 -0.000013 -7.972800 1.092900 -61.125800 11.754300 -0.000000 0.000003 -0.000105 -0.001074 -16.618700 -2.192510 6.469440 -0.000001 175.446000 19.346700 177.120000 -39.081100 -0.002282 -0.040193 -0.081935 0.233149 20.086100 -40.985400 0.000008 0.000006 -3.840940 2.939430 -62.954400 -11.754300 -0.000006 -0.000006 -0.004647 -0.058007 -18.933100
0.000000 0.000000 0.000000 0.000000 0.000000 -0.000000 -2.633270 92.120000 -2.597640 88.027500 -1.689970 2.620160 15.735700 0.000005 -0.000001 69.356100 85.498900 -65.615900 8.984550 -0.406207 -0.000000 0.782055 -3.400300 7.499820 16.377300 -0.000001 -0.000001 2.879110 -0.262106 -2.899310 6.456720 -0.000001 -0.000000 -1.688140 -0.993167 18.239500 12.994200 -0.242716 4.980390 -83.857800 -11.031700 -60.647200 5.348090 -0.000007 -0.000001 -63.410300 -57.053200 -115.548000 24.328600 0.000019 0.000005 0.210638 0.192821 -47.519900 22.291600 -0.000001 0.000005 18.305500 5.542510 -8.357760 12.994500 -0.242716 -4.980390 89.461700 1.401150 -68.980800 -5.348130 -0.000001 -0.000004 -48.953200 71.225000 3.284130 -24.328900 0.000322 -0.000009 19.886400 0.318899 -89.119300 -22.291500 -0.000108 -0.000004 27.062500 5.676610 -23.629500 -2.192480 -6.469440 -0.000000 -167.915000 -15.860800 -2.964610 39.081100 -0.000007 -0.000012 -0.144903 0.418729 19.088500 40.985400 -0.000006 -0.000013 -7.994020 1.072880 -61.090800 11.754300 -0.000000 0.000003 -0.000101 -0.001036 -16.617300 -2.192510 6.469440 -0.000001 175.455000 19.240000 177.125000 -39.081100 -0.002282 -0.040193 -0.084344 0.239739 20.086000 -40.985400 0.000008 0.000006 -3.842800 2.868400 -62.953600 -11.754300 -0.000006 -0.000006 -0.004645 -0.057985 -18.932200
0.000000 0.000000 0.000000 0.000000 0.000000 -0.000000 -2.645330 92.104500 -2.598710 88.014000 -1.698820 2.669720 15.735700 0.000005 -0.000001 69.972600 85.498400 -66.178400 8.984550 -0.406207 -0.000000 0.815744 -3.312050 7.608110 16.377300 -0.000001 -0.000001 2.839700 -0.462973 -2.736390 6.456720 -0.000001 -0.000000 -1.468720 -1.119880 18.223500 12.994200 -0.242716 4.980390 -83.966000 -10.932700 -60.867000 5.348090 -0.000007 -0.000001 -60.224800 -58.315200 -108.890000 24.328600 0.000019 0.000005 0.243128 0.235788 -45.871200 22.291600 -0.000001 0.000005 18.406900 5.537910 -8.148000 12.994500 -0.242716 -4.980390 89.483900 1.336080 -68.877700 -5.348130 -0.000001 -0.000004 -48.902000 71.259100 3.194870 -24.328900 0.000322 -0.000009 19.887900 0.308586 -89.147900 -22.291500 -0.000108 -0.000004 27.153000 5.676910 -23.557800 -2.192480 -6.469440 -0.000000 -167.884000 -15.811100 -2.975280 39.081100 -0.000007 -0.000012 -0.144724 0.415142 19.219400 40.985400 -0.000006 -0.000013 -8.007750 1.043160 -61.162900 11.754300 -0.000000 0.000003 -0.000089 -0.000932 -16.613400 -2.192510 6.469440 -0.000001 175.472000 19.186000 177.113000 -39.081100 -0.002282 -0.040193 -0.083767 0.236567 20.210400 -40.985400 0.000008 0.000006 -3.832490 2.833840 -63.023600 -11.754300 -0.000006 -0.000006 -0.004889 -0.060384 -19.029900
0.000000 0.000000 0.000000 0.000000 0.000000 -0.000000 -2.660030 92.104700 -2.605040 88.009400 -1.647710 2.723420 15.735700 0.000005 -0.000001 70.717200 85.490900 -66.879300 8.984550 -0.406207 -0.000000 0.867210 -3.207740 7.695840 16.377300 -0.000001 -0.000001 2.723140 -0.639259 -2.621460 6.456720 -0.000001 -0.000000 -1.353280 -1.228980 18.250300 12.994200 -0.242716 4.980390 -84.053900 -10.859200 -61.064300 5.348090 -0.000007 -0.000001 -56.027200 -59.148700 -100.955000 24.328600 0.000019 0.000005 0.472675 0.487319 -44.123200 22.291600 -0.000001 0.000005 18.355700 5.532210 -7.893400 12.994500 -0.242716 -4.980390 89.469200 1.368130 -68.794200 -5.348130 -0.000001 -0.000004 -48.863900 71.231700 3.244220 -24.328900 0.000322 -0.000009 20.069200 0.282141 -89.228600 -22.291500 -0.000108 -0.000004 27.152400 5.676900 -23.560400 -2.192480 -6.469440 -0.000000 -167.852000 -15.813700 -2.933540 39.081100 -0.000007 -0.000012 -0.145545 0.417782 19.207200 40.985400 -0.000006 -0.000013 -8.008420 1.096260 -61.135200 11.754300 -0.000000 0.000003 -0.000088 -0.000923 -16.613000 -2.192510 6.469440 -0.000001 175.459000 19.215600 177.182000 -39.081100 -0.002282 -0.040193 -0.084971 0.239930 20.203100 -40.985400 0.000008 0.000006 -3.826950 2.838470 -63.028000 -11.754300 -0.000006 -0.000006 -0.004552 -0.057067 -18.894700
0.000000 0.000000 0.000000 0.000000 0.000000 -0.000000 -2.689180 92.091900 -2.605670 87.984800 -1.513120 2.804860 15.735700 0.000005 -0.000001 71.387600 85.471000 -67.509400 8.984550 -0.406207 -0.000000 0.937582 -3.120670 7.777340 16.377300 -0.000001 -0.000001 2.669290 -0.804051 -2.442300 6.456720 -0.000001 -0.000000 -1.380370 -1.295490 18.192300 12.994200 -0.242716 4.980390 -84.137000 -10.826600 -61.335400 5.348090 -0.000007 -0.000001 -51.198200 -59.347400 -92.229000 24.328600 0.000019 0.000005 0.644113 0.711761 -42.147500 22.291600 -0.000001 0.000005 18.454700 5.526870 -7.657910 12.994500 -0.242716 -4.980390 89.469600 1.361230 -68.708200 -5.348130 -0.000001 -0.000004 -49.000500 71.119600 3.344260 -24.328900 0.000322 -0.000009 20.176800 0.269860 -89.266500 -22.291500 -0.000108 -0.000004 27.174700 5.676860 -23.567400 -2.192480 -6.469440 -0.000000 -167.775000 -15.780500 -2.934910 39.081100 -0.000007 -0.000012 -0.149367 0.426647 19.295100 40.985400 -0.000006 -0.000013 -8.011530 1.234120 -61.140600 11.754300 -0.000000 0.000003 -0.000105 -0.001070 -16.618600 -2.192510 6.469440 -0.000001 175.471000 19.279800 177.248000 -39.081100 -0.002282 -0.040193 -0.086032 0.241701 20.288600 -40.985400 0.000008 0.000006 -3.822060 2.760560 -63.094000 -11.754300 -0.000006 -0.000006 -0.004748 -0.059001 -18.973600
0.000000 0.000000 0.000000 0.000000 0.000000 -0.000000 -2.718170 92.086600 -2.602550 87.989700 -1.273110 2.905390 15.735700 0.000005 -0.000001 71.969900 85.436100 -68.071900 8.984550 -0.406207 -0.000000 1.031220 -3.052820 7.818850 16.377300 -0.000001 -0.000001 2.491100 -0.951729 -2.272430 6.456720 -0.000001 -0.000000 -1.416990 -1.415380 18.258400 12.994200 -0.242716 4.980390 -84.173100 -10.930000 -61.710200 5.348090 -0.000007 -0.000001 -46.372400 -58.883300 -83.249400 24.328600 0.000019 0.000005 1.037900 1.236700 -40.019300 22.291600 -0.000001 0.000005 18.531900 5.518870 -7.313930 12.994500 -0.242716 -4.980390 89.469300 1.354900 -68.607900 -5.348130 -0.000001 -0.000004 -49.104300 71.003900 3.404040 -24.328900 0.000322 -0.000009 20.202600 0.253634 -89.311600 -22.291500 -0.000108 -0.000004 27.056200 5.676290 -23.701200 -2.192480 -6.469440 -0.000000 -167.746000 -15.665700 -2.895440 39.081100 -0.000007 -0.000012 -0.148061 0.422533 19.311300 40.985400 -0.000006 -0.000013 -8.002640 1.381460 -61.117400 11.754300 -0.000000 0.000003 -0.000086 -0.000905 -16.612400 -2.192510 6.469440 -0.000001 175.439000 19.347700 177.384000 -39.081100 -0.002282 -0.040193 -0.087632 0.245623 20.319400 -40.985400 0.000008 0.000006 -3.837830 2.627720 -63.155600 -11.754300 -0.000006 -0.000006 -0.004639 -0.057931 -18.930000
